<?xml version="1.0" encoding="iso-8859-1"?>
<!-- Generator: Adobe Illustrator 19.0.0, SVG Export Plug-In . SVG Version: 6.00 Build 0)  -->
<svg version="1.1" id="Capa_1" xmlns="http://www.w3.org/2000/svg" xmlns:xlink="http://www.w3.org/1999/xlink" x="0px" y="0px"
	 viewBox="0 0 512 512" style="enable-background:new 0 0 512 512;" xml:space="preserve">
<path style="fill:#4BA9EF;" d="M376.5,461h-241c-5.137,0-9.916-2.628-12.667-6.966l-120.5-190c-3.11-4.904-3.11-11.163,0-16.067
	l120.5-190c2.751-4.338,7.531-6.967,12.667-6.967h241c5.137,0,9.916,2.628,12.667,6.966l120.5,190c3.11,4.904,3.11,11.163,0,16.067
	l-120.5,190C386.415,458.372,381.637,461,376.5,461z"/>
<path style="fill:#3C8ADA;" d="M509.668,247.967l-120.5-190C386.415,53.629,381.637,51,376.5,51h-120.5v410h120.5
	c5.137,0,9.916-2.628,12.667-6.966l120.5-190C512.778,259.13,512.778,252.871,509.668,247.967z"/>
<g>
</g>
<g>
</g>
<g>
</g>
<g>
</g>
<g>
</g>
<g>
</g>
<g>
</g>
<g>
</g>
<g>
</g>
<g>
</g>
<g>
</g>
<g>
</g>
<g>
</g>
<g>
</g>
<g>
</g>
</svg>
